<?xml version="1.0" encoding="UTF-8"?>
<svg width="0" height="0" viewBox="0 0 0 0" xmlns="http://www.w3.org/2000/svg">
  <defs>
    
    <!-- Dog sprite -->
    <symbol id="dog" viewBox="0 0 24 24">
      <!-- Body -->
      <rect x="6" y="10" width="12" height="8" fill="#8B4513"/>
      <!-- Head -->
      <rect x="3" y="8" width="8" height="8" fill="#8B4513"/>
      <!-- Ears -->
      <rect x="3" y="6" width="3" height="3" fill="#654321"/>
      <rect x="8" y="6" width="3" height="3" fill="#654321"/>
      <!-- Tail -->
      <rect x="16" y="8" width="4" height="3" fill="#654321"/>
      <!-- Legs -->
      <rect x="6" y="16" width="2" height="4" fill="#654321"/>
      <rect x="10" y="16" width="2" height="4" fill="#654321"/>
      <rect x="14" y="16" width="2" height="4" fill="#654321"/>
      <rect x="16" y="16" width="2" height="4" fill="#654321"/>
      <!-- Eyes -->
      <rect x="4" y="10" width="1" height="1" fill="#000"/>
      <rect x="6" y="10" width="1" height="1" fill="#000"/>
      <!-- Nose -->
      <rect x="5" y="12" width="1" height="1" fill="#000"/>
    </symbol>

    <!-- Paw print -->
    <symbol id="paw" viewBox="0 0 12 12">
      <rect x="5" y="6" width="2" height="3" fill="#654321" opacity="0.5"/>
      <rect x="3" y="3" width="2" height="2" fill="#654321" opacity="0.5"/>
      <rect x="7" y="3" width="2" height="2" fill="#654321" opacity="0.5"/>
      <rect x="2" y="5" width="2" height="2" fill="#654321" opacity="0.5"/>
      <rect x="8" y="5" width="2" height="2" fill="#654321" opacity="0.5"/>
    </symbol>
  
  </defs>

  <!-- Background tiles -->
  

  <!-- Paw prints -->
  

  <!-- Dog -->
  <use href="#dog" x="0" y="0" width="12" height="12"/>
</svg>