<svg width="24" height="24" viewBox="0 0 24 24" xmlns="http://www.w3.org/2000/svg">
  <!-- Head -->
  <rect x="10" y="11" width="4" height="4" fill="#1A1A1A"/>
  <rect x="11" y="10" width="2" height="1" fill="#1A1A1A"/>

  <!-- Ears -->
  <rect x="10" y="10" width="1" height="1" fill="#1A1A1A"/>
  <rect x="13" y="10" width="1" height="1" fill="#1A1A1A"/>
  <rect x="10" y="9" width="1" height="1" fill="#1A1A1A"/>
  <rect x="13" y="9" width="1" height="1" fill="#1A1A1A"/>

  <!-- Eyes -->
  <rect x="11" y="12" width="1" height="1" fill="#FFD700"/>
  <rect x="12" y="12" width="1" height="1" fill="#FFD700"/>

  <!-- Body -->
  <rect x="10" y="14" width="4" height="4" fill="#1A1A1A"/>
  <rect x="9" y="15" width="1" height="2" fill="#1A1A1A"/>
  <rect x="14" y="15" width="1" height="2" fill="#1A1A1A"/>

  <!-- Tail (at back, curved) -->
  <rect x="11" y="18" width="2" height="1" fill="#1A1A1A"/>
  <rect x="10" y="19" width="1" height="1" fill="#1A1A1A"/>
  <rect x="13" y="19" width="1" height="1" fill="#1A1A1A"/>
  <rect x="9" y="20" width="1" height="1" fill="#1A1A1A"/>
  <rect x="14" y="20" width="1" height="1" fill="#1A1A1A"/>

  <!-- Legs -->
  <rect x="10" y="18" width="1" height="2" fill="#1A1A1A"/>
  <rect x="13" y="18" width="1" height="2" fill="#1A1A1A"/>
</svg>
