<svg width="24" height="24" viewBox="0 0 24 24" xmlns="http://www.w3.org/2000/svg">
  <!-- Tail (at back) -->
  <rect x="11" y="17" width="2" height="2" fill="#1A1A1A"/>
  <rect x="10" y="19" width="1" height="1" fill="#1A1A1A"/>
  <rect x="13" y="19" width="1" height="1" fill="#1A1A1A"/>

  <!-- Body -->
  <rect x="10" y="13" width="4" height="5" fill="#1A1A1A"/>
  <rect x="9" y="14" width="1" height="3" fill="#1A1A1A"/>
  <rect x="14" y="14" width="1" height="3" fill="#1A1A1A"/>

  <!-- Head -->
  <rect x="10" y="10" width="4" height="4" fill="#1A1A1A"/>
  <rect x="11" y="9" width="2" height="1" fill="#1A1A1A"/>

  <!-- Ears -->
  <rect x="10" y="9" width="1" height="1" fill="#1A1A1A"/>
  <rect x="13" y="9" width="1" height="1" fill="#1A1A1A"/>
  <rect x="10" y="8" width="1" height="1" fill="#1A1A1A"/>
  <rect x="13" y="8" width="1" height="1" fill="#1A1A1A"/>

  <!-- Eyes -->
  <rect x="11" y="11" width="1" height="1" fill="#FFD700"/>
  <rect x="12" y="11" width="1" height="1" fill="#FFD700"/>

  <!-- Legs -->
  <rect x="10" y="18" width="1" height="2" fill="#1A1A1A"/>
  <rect x="13" y="18" width="1" height="2" fill="#1A1A1A"/>
</svg>
