<svg width="12" height="12" viewBox="0 0 12 12" xmlns="http://www.w3.org/2000/svg">
  <g id="grassSprite">
    <!-- Grass clump 1 (left) -->
    <rect x="1" y="7" width="3" height="4" fill="#2A6A2A"/>
    <rect x="1" y="6" width="3" height="3" fill="#3A8A3A"/>
    <rect x="1" y="5" width="3" height="2" fill="#4AAA4A"/>
    <rect x="2" y="4" width="2" height="2" fill="#6ADA6A"/>
    <rect x="2" y="3" width="1" height="2" fill="#8AFA8A"/>

    <!-- Grass clump 2 (center-left) -->
    <rect x="3" y="8" width="3" height="3" fill="#2A6A2A"/>
    <rect x="3" y="7" width="3" height="3" fill="#3A8A3A"/>
    <rect x="3" y="6" width="3" height="2" fill="#4AAA4A"/>
    <rect x="4" y="5" width="2" height="2" fill="#6ADA6A"/>
    <rect x="4" y="4" width="2" height="2" fill="#8AFA8A"/>
    <rect x="5" y="3" width="1" height="2" fill="#AAFFAA"/>

    <!-- Grass clump 3 (center-right) -->
    <rect x="5" y="8" width="3" height="3" fill="#2A6A2A"/>
    <rect x="5" y="7" width="3" height="3" fill="#3A8A3A"/>
    <rect x="5" y="6" width="3" height="2" fill="#4AAA4A"/>
    <rect x="6" y="5" width="2" height="2" fill="#6ADA6A"/>
    <rect x="6" y="4" width="2" height="2" fill="#8AFA8A"/>
    <rect x="7" y="3" width="1" height="2" fill="#AAFFAA"/>

    <!-- Grass clump 4 (right) -->
    <rect x="8" y="7" width="3" height="4" fill="#2A6A2A"/>
    <rect x="8" y="6" width="3" height="3" fill="#3A8A3A"/>
    <rect x="8" y="5" width="3" height="2" fill="#4AAA4A"/>
    <rect x="9" y="4" width="2" height="2" fill="#6ADA6A"/>
    <rect x="9" y="3" width="1" height="2" fill="#8AFA8A"/>
  </g>
</svg>
