<svg width="24" height="24" viewBox="0 0 24 24" xmlns="http://www.w3.org/2000/svg">
  <g id="grassWithFlowersSprite">
    <!-- Center/Base -->
    <rect x="10" y="14" width="4" height="4" fill="#1A3A1A"/>
    <rect x="11" y="13" width="2" height="2" fill="#254A25"/>

    <!-- Leaf pointing down-left (most visible) -->
    <rect x="5" y="16" width="6" height="4" fill="#2A5A2A"/>
    <rect x="6" y="15" width="5" height="3" fill="#356535"/>
    <rect x="7" y="14" width="4" height="3" fill="#4A8A4A"/>
    <rect x="8" y="13" width="3" height="3" fill="#5AAA5A"/>
    <rect x="9" y="12" width="2" height="3" fill="#6ACA6A"/>
    <rect x="9" y="11" width="2" height="2" fill="#7ADA7A"/>
    <rect x="10" y="10" width="1" height="2" fill="#8AEA8A"/>

    <!-- Leaf pointing down-right (most visible) -->
    <rect x="13" y="16" width="6" height="4" fill="#2A5A2A"/>
    <rect x="13" y="15" width="5" height="3" fill="#356535"/>
    <rect x="13" y="14" width="4" height="3" fill="#4A8A4A"/>
    <rect x="13" y="13" width="3" height="3" fill="#5AAA5A"/>
    <rect x="13" y="12" width="2" height="3" fill="#6ACA6A"/>
    <rect x="13" y="11" width="2" height="2" fill="#7ADA7A"/>
    <rect x="13" y="10" width="1" height="2" fill="#8AEA8A"/>

    <!-- Leaf pointing left -->
    <rect x="3" y="12" width="5" height="4" fill="#2A5A2A"/>
    <rect x="4" y="12" width="4" height="3" fill="#356535"/>
    <rect x="5" y="11" width="4" height="3" fill="#4A8A4A"/>
    <rect x="6" y="11" width="3" height="2" fill="#5AAA5A"/>
    <rect x="7" y="11" width="2" height="2" fill="#6ACA6A"/>
    <rect x="8" y="11" width="2" height="2" fill="#7ADA7A"/>

    <!-- Leaf pointing right -->
    <rect x="16" y="12" width="5" height="4" fill="#2A5A2A"/>
    <rect x="16" y="12" width="4" height="3" fill="#356535"/>
    <rect x="15" y="11" width="4" height="3" fill="#4A8A4A"/>
    <rect x="15" y="11" width="3" height="2" fill="#5AAA5A"/>
    <rect x="14" y="11" width="2" height="2" fill="#6ACA6A"/>
    <rect x="14" y="11" width="2" height="2" fill="#7ADA7A"/>

    <!-- Leaf pointing up-left (smaller, less visible) -->
    <rect x="6" y="8" width="4" height="4" fill="#2A5A2A"/>
    <rect x="7" y="8" width="3" height="3" fill="#356535"/>
    <rect x="8" y="8" width="2" height="3" fill="#4A8A4A"/>
    <rect x="8" y="9" width="2" height="2" fill="#5AAA5A"/>
    <rect x="9" y="10" width="1" height="2" fill="#6ACA6A"/>
    <rect x="9" y="10" width="1" height="1" fill="#7ADA7A"/>

    <!-- Leaf pointing up-right (smaller, less visible) -->
    <rect x="14" y="8" width="4" height="4" fill="#2A5A2A"/>
    <rect x="14" y="8" width="3" height="3" fill="#356535"/>
    <rect x="14" y="8" width="2" height="3" fill="#4A8A4A"/>
    <rect x="14" y="9" width="2" height="2" fill="#5AAA5A"/>
    <rect x="14" y="10" width="1" height="2" fill="#6ACA6A"/>
    <rect x="14" y="10" width="1" height="1" fill="#7ADA7A"/>

    <!-- Leaf pointing up (smallest, top view) -->
    <rect x="10" y="6" width="4" height="5" fill="#2A5A2A"/>
    <rect x="11" y="6" width="2" height="4" fill="#356535"/>
    <rect x="11" y="6" width="2" height="3" fill="#4A8A4A"/>
    <rect x="11" y="7" width="2" height="2" fill="#5AAA5A"/>
    <rect x="11" y="8" width="2" height="2" fill="#6ACA6A"/>
    <rect x="12" y="8" width="1" height="1" fill="#7ADA7A"/>
    <rect x="12" y="7" width="1" height="1" fill="#8AEA8A"/>

    <!-- Leaf pointing down (larger, bottom view) -->
    <rect x="10" y="17" width="4" height="3" fill="#2A5A2A"/>
    <rect x="11" y="16" width="2" height="4" fill="#356535"/>
    <rect x="11" y="15" width="2" height="3" fill="#4A8A4A"/>
    <rect x="11" y="14" width="2" height="2" fill="#5AAA5A"/>
    <rect x="11" y="14" width="2" height="2" fill="#6ACA6A"/>

    <!-- Center highlight -->
    <rect x="11" y="12" width="2" height="2" fill="#8AEA8A"/>
    <rect x="11" y="11" width="2" height="2" fill="#9AFA9A"/>

    <!-- Flowers scattered on leaves -->
    <!-- Pink flower on left leaf -->
    <rect x="7" y="13" width="2" height="2" fill="#FF88CC"/>
    <rect x="8" y="14" width="1" height="1" fill="#FFAADD"/>

    <!-- Yellow flower on top -->
    <rect x="11" y="8" width="2" height="2" fill="#FFDD44"/>
    <rect x="12" y="9" width="1" height="1" fill="#FFEE88"/>

    <!-- Purple flower on right leaf -->
    <rect x="15" y="12" width="2" height="2" fill="#DD88FF"/>
    <rect x="16" y="13" width="1" height="1" fill="#EEAAFF"/>

    <!-- Small flowers -->
    <rect x="9" y="11" width="1" height="1" fill="#FFAADD"/>
    <rect x="14" y="10" width="1" height="1" fill="#FFEE88"/>
  </g>
</svg>
